<svg class="topReviewedHotels_svg__svg" viewBox="0 0 18 25"><g fill="none" fill-rule="evenodd"><path d="M-5-.573h27.562v27.562H-5z"></path><g fill-rule="nonzero"><path fill="#E0BB1E" d="M4.605 20.344c-.042-.125-.125-.167-.25-.208H4.23a.376.376 0 00-.208.041l-2.673 1.504 2.59-7.14.208.166a7.541 7.541 0 003.8 1.504l.25.041-.585 1.624-1.921 5.346-1.086-2.878zm4.72-4.135l.249-.041a7.936 7.936 0 003.803-1.5l.208-.166 2.59 7.14-2.673-1.503a.308.308 0 00-.208-.042.154.154 0 00-.125.042.427.427 0 00-.25.208l-1.002 2.88-2.593-7.018zM7.486 9.152a.2.2 0 00-.083-.25L5.567 7.565h2.258a.282.282 0 00.25-.166l.71-2.172.625 1.963.084.209c.036.087.115.15.208.166h2.255L10.12 8.902a.2.2 0 00-.083.25l.709 2.171-1.841-1.332a.208.208 0 00-.25 0l-1.837 1.337.67-2.176z"></path><path fill="#FDDC0D" d="M9.867 17.593l.25-.042a8.875 8.875 0 003.8-1.504l.208-.166 2.088 5.721-2.671-1.505a.308.308 0 00-.208-.042.154.154 0 00-.125.042.427.427 0 00-.25.208l-1.044 2.93-2.048-5.642zm-5.262 2.755c-.042-.124-.125-.166-.25-.208H4.23a.376.376 0 00-.208.042l-2.673 1.504 2.088-5.722.209.167a9.044 9.044 0 003.841 1.503l.25.042-2.046 5.552-1.086-2.88zm2.88-11.191a.2.2 0 00-.083-.25l-.792-.585h2.005l.584-1.796.293.835a.28.28 0 00.208.167h2.255l-1.837 1.337a.2.2 0 00-.083.25l.71 2.171-1.84-1.337a.208.208 0 00-.25 0l-1.837 1.337.668-2.13z"></path><path fill="#202D61" d="M5.69 24.691a.401.401 0 01-.38-.243l-1.294-3.424-3.211 1.789a.308.308 0 01-.208.042.375.375 0 01-.377-.377.154.154 0 01.042-.125l3.049-8.436-.083-.083a7.65 7.65 0 1111.067-.041l-.084.083 3.085 8.436a.389.389 0 01-.25.5c-.042 0-.083.043-.125.043a.376.376 0 01-.208-.042l-3.216-1.795-1.294 3.423a.366.366 0 01-.376.25.401.401 0 01-.376-.25l-2.673-7.475-2.714 7.517a.438.438 0 01-.373.208zm7.726-10.024a7.403 7.403 0 01-3.8 1.504l-.25.041 2.547 7.016 1.08-2.881c.042-.125.125-.208.208-.208.042 0 .083-.042.125-.042a.376.376 0 01.208.042l2.673 1.503-2.59-7.182-.201.207zM4.23 20.099a.154.154 0 01.125.041c.089.047.161.12.208.208l1.08 2.881 1.963-5.387.585-1.628-.25-.042a7.403 7.403 0 01-3.8-1.504l-.209-.166-2.589 7.14 2.673-1.503a.376.376 0 01.214-.04zM8.781 1.68a6.872 6.872 0 00-.25 13.74h.463a6.903 6.903 0 006.64-7.14 6.83 6.83 0 00-6.853-6.6zM6.358 12.17a.154.154 0 01-.125-.042.2.2 0 01-.083-.25l.878-2.673L4.73 7.528a.217.217 0 01-.042-.335c.042-.083.125-.083.208-.083h2.84l.877-2.714a.238.238 0 01.293-.167.325.325 0 01.167.167l.877 2.672h2.84c.083 0 .208.084.208.167a.2.2 0 01-.084.25L10.62 9.157l.877 2.714a.2.2 0 01-.083.25.208.208 0 01-.25 0l-2.3-1.67-2.296 1.67a.558.558 0 01-.208.041l-.002.007zm1.044-3.26a.2.2 0 01.084.25l-.71 2.172 1.837-1.337a.208.208 0 01.25 0l1.837 1.337-.71-2.172a.2.2 0 01.084-.25l1.836-1.337H9.66c-.084 0-.208-.083-.208-.166l-.084-.25-.586-1.926-.71 2.171a.278.278 0 01-.207.167H5.607L7.402 8.91z"></path></g></g></svg>