<svg class="hygenicRooms_svg__svg" viewBox="0 0 26 24"><g fill="none" fill-rule="evenodd"><path d="M-1-2h27.981v27.981H-1z"></path><path fill="#FF4B00" fill-rule="nonzero" d="M24.988 15.425v1.23H9.429l.212-.339c.449-.798.973-1.55 1.566-2.246.594-.637 1.102-.89 2.969-.933 3.01.127 9.538 1.06 9.538 1.06h.085a1.223 1.223 0 011.189 1.228zm-17.254-.34v.085l-.043.043c-.381.55-.636 1.06-.806 1.314l-.042.126H5.359V15.17a1.46 1.46 0 011.188-1.442 1.37 1.37 0 011.187 1.357zm17.254 3.179v4.282h-.975l-.72-1.862-.34-.854H3.024l-1.097 2.717H1.84V10.718H2.9v6.699h.855v.854l21.233-.007z" opacity="0.7"></path><path fill="#333" fill-rule="nonzero" d="M23.504 23.352l-1.06-2.714H3.537l-1.06 2.714H.186V9.064h3.477v4.325l.339-.17a2.24 2.24 0 011.356-.338h.68A2.51 2.51 0 018.2 13.983l.17.255.169-.255c.116-.164.244-.32.381-.467 1.566-1.865 4.537-1.4 14.796-.127h.085a2.027 2.027 0 011.993 2.034v7.973h-2.29v-.044zm.551-.764h.976v-5.171H2.9V9.87H.993v12.72h.975l1.066-2.715h19.962l1.06 2.713zm-10.514-9.496c-2.714 0-3.35.212-4.028.932a16.408 16.408 0 00-1.566 2.247l-.212.381H24.99v-1.23c0-.68-.55-1.23-1.23-1.23h-.082c0-.04-7.545-1.099-10.135-1.099l-.001-.001zm-8.183.55a1.549 1.549 0 00-1.696 1.484v1.526h3.182l.043-.127c.17-.296.467-.763.806-1.314l.042-.042v-.086a1.566 1.566 0 00-1.697-1.439l-.68-.001zm.381-4.154c-.042 0-.085 0-.085-.042a.233.233 0 01-.127-.212l.296-1.908-1.738-.854c-.17-.17-.17-.296.043-.382l1.91-.337.296-1.908a.182.182 0 01.17-.17.234.234 0 01.212.128l.89 1.695 1.907-.339c.255.043.296.127.17.34L8.326 6.854l.89 1.695a.222.222 0 01-.296.296l-1.74-.853-1.313 1.442c.002.054-.084.054-.128.054zm-.888-3.094l1.271.636c.08.04.129.123.127.212l-.212 1.4 1.018-1.018a.2.2 0 01.255-.043l1.27.636-.677-1.271a.2.2 0 01.043-.255l1.018-1.018-1.4.255a.233.233 0 01-.212-.127L6.673 4.53l-.212 1.399a.182.182 0 01-.17.17l-1.44.296zm18.527 4.749c-.086 0-.17-.043-.17-.127l-.677-1.357-1.484.212a.233.233 0 01-.217-.132.2.2 0 01.042-.255l1.06-1.06-.677-1.357a.222.222 0 01.296-.296l1.357.677 1.06-1.06a.2.2 0 01.255-.043c.08.04.129.123.127.212l-.246 1.49 1.357.678a.233.233 0 01.126.213.182.182 0 01-.17.169l-1.483.212-.338 1.653a.194.194 0 01-.213.17h-.005zm-.763-1.908c.085 0 .17.043.17.127l.465.89.17-1.018a.182.182 0 01.168-.17l1.018-.17-.89-.466a.233.233 0 01-.126-.212l.17-1.018-.721.72a.2.2 0 01-.255.043l-.89-.427.467.89a.2.2 0 01-.042.254l-.72.72 1.017-.169-.001.006zm-4.537-1.4a.155.155 0 01-.127-.042L16.043 6.18l-2.12 1.314a.27.27 0 01-.254 0c-.086-.043-.086-.17-.043-.255l.94-2.329-1.908-1.61c-.085-.043-.085-.17-.043-.255a.233.233 0 01.212-.127l2.502.17.932-2.332a.234.234 0 01.212-.127c.095.017.175.08.212.17l.586 2.458 2.5.17c.096.016.175.08.213.169a.155.155 0 01-.086.212l-2.12 1.314.594 2.458a.155.155 0 01-.085.213.863.863 0 00-.21.044zm-2.035-2.162a.155.155 0 01.127.043l1.528 1.318-.467-1.95a.155.155 0 01.085-.212l1.696-1.06-1.993-.128a.285.285 0 01-.213-.169l-.467-1.95-.763 1.865a.323.323 0 01-.212.085l-1.993-.127 1.526 1.314c.086.043.086.17.043.255l-.763 1.865 1.697-1.07c.084-.079.127-.079.17-.079z"></path></g></svg>