<svg class="centrallyLocated_svg__svg" viewBox="0 0 19 25"><g fill="none" fill-rule="evenodd"><g fill-rule="nonzero"><path fill="#E0BB1E" d="M9.436 23.445A14.732 14.732 0 012.33 22.01c-.596-.37-.913-.77-.913-1.156 0-1.002 2.321-2.219 6.206-2.518l.139-.01.257.528c.142.298.271.559.394.801.396.809.665 1.33.714 1.424a.348.348 0 00.31.195.359.359 0 00.308-.192c.057-.106.343-.664.745-1.5l.034-.068c.156-.319.332-.676.518-1.062l.061-.125.14.01c3.939.298 6.142 1.499 6.217 2.471v.05c-.006 1.223-3.3 2.587-8.024 2.587zm0-14.204a2.103 2.103 0 110-4.205 2.103 2.103 0 010 4.205z"></path><path fill="#FDDC0D" d="M9.436 23.445A14.732 14.732 0 012.33 22.01l-.188-.117.13-.178c.765-1.053 3.04-1.885 5.937-2.173l.141-.013.063.128c.394.807.664 1.328.713 1.422a.348.348 0 00.31.195.359.359 0 00.308-.192c.056-.106.342-.664.744-1.5l.055-.116h1.436c1.843.062 3.66.46 5.36 1.172l.116.055v.13c-.001 1.257-3.292 2.622-8.02 2.622zm0-13.65c-.479 0-.948-.13-1.357-.377l-.068-.041-.023-.076a2.582 2.582 0 01-.101-.718 2.652 2.652 0 014.011-2.274l.072.043.02.08a2.656 2.656 0 01-2.557 3.364h.003z"></path><path fill="#202D61" d="M9.436 24.137c-4.283 0-8.713-1.228-8.713-3.284 0-1.875 3.47-2.882 6.44-3.175l.286-.028-.122-.262C5.643 13.763 3.633 8.949 3.633 6.597a5.807 5.807 0 1111.605 0c0 1.787-1.318 5.613-3.712 10.792l-.12.262.287.029c2.978.287 6.456 1.29 6.456 3.174-.001 2.055-4.431 3.283-8.713 3.283zM7.623 18.33c-3.885.298-6.206 1.516-6.206 2.518 0 .386.316.786.913 1.156a14.73 14.73 0 007.107 1.435c4.726 0 8.018-1.365 8.018-2.59v-.05c-.074-.972-2.278-2.168-6.216-2.47l-.14-.01-.061.124c-.185.386-.36.745-.517 1.06l-.034.08c-.4.838-.687 1.395-.745 1.499a.362.362 0 01-.315.195.344.344 0 01-.298-.19c-.052-.099-.32-.62-.716-1.427-.123-.244-.252-.512-.394-.803l-.257-.528-.139.001zm2.017 1.355l-.05.128.023-.022.016-.031c.249-.502.575-1.177.938-1.95l.02-.041v-.01c1.489-3.162 3.956-8.786 3.956-11.168a5.109 5.109 0 00-10.218 0c0 3.042 3.763 10.847 4.914 13.169l.013.028.023.022-.046-.125h.41zM9.436 9.93a2.796 2.796 0 110-5.593 2.796 2.796 0 010 5.593zm0-4.897a2.103 2.103 0 100 4.205 2.103 2.103 0 000-4.205z"></path></g><path d="M-4-.588h26.873v26.873H-4z"></path></g></svg>