<svg width="303" height="88" viewBox="0 0 303 88" fill="none" xmlns="http://www.w3.org/2000/svg">
<path d="M14.184 43.512C14.184 42.216 15.336 41.496 17.208 41.496C19.584 41.496 21.024 42.792 22.032 44.664L31.248 39.696C28.224 34.584 23.04 31.992 17.208 31.992C9.72 31.992 3.096 35.952 3.096 43.8C3.096 56.256 20.808 54.168 20.808 58.128C20.808 59.568 19.512 60.36 16.92 60.36C13.752 60.36 11.736 58.848 10.8 56.112L1.44 61.44C4.248 67.272 9.72 70.008 16.92 70.008C24.696 70.008 31.896 66.48 31.896 58.2C31.896 44.88 14.184 47.616 14.184 43.512ZM77.9597 31.992C72.8477 31.992 69.5357 33.864 67.5197 36.744C65.5037 33.72 62.3357 31.992 58.0877 31.992C53.2637 31.992 50.0957 33.864 48.4397 36.312V33H37.6397V69H48.4397V48.696C48.4397 44.448 50.4557 41.928 54.0557 41.928C57.5117 41.928 59.2397 44.232 59.2397 47.832V69H70.0397V48.696C70.0397 44.448 72.0557 41.928 75.6557 41.928C79.1117 41.928 80.8397 44.232 80.8397 47.832V69H91.6397V46.896C91.6397 37.896 86.2397 31.992 77.9597 31.992ZM109.247 43.512C109.247 42.216 110.399 41.496 112.271 41.496C114.647 41.496 116.087 42.792 117.095 44.664L126.311 39.696C123.287 34.584 118.103 31.992 112.271 31.992C104.783 31.992 98.1585 35.952 98.1585 43.8C98.1585 56.256 115.871 54.168 115.871 58.128C115.871 59.568 114.575 60.36 111.983 60.36C108.815 60.36 106.799 58.848 105.863 56.112L96.5025 61.44C99.3105 67.272 104.783 70.008 111.983 70.008C119.759 70.008 126.959 66.48 126.959 58.2C126.959 44.88 109.247 47.616 109.247 43.512Z" fill="white"/>
<path d="M163.752 35.448V69H160.392V53.304H142.2V69H138.84V35.448H142.2V50.52H160.392V35.448H163.752ZM186.49 69.336C183.386 69.336 180.57 68.616 178.042 67.176C175.514 65.704 173.514 63.672 172.042 61.08C170.602 58.456 169.882 55.496 169.882 52.2C169.882 48.904 170.602 45.96 172.042 43.368C173.514 40.744 175.514 38.712 178.042 37.272C180.57 35.8 183.386 35.064 186.49 35.064C189.626 35.064 192.458 35.8 194.986 37.272C197.514 38.712 199.498 40.744 200.938 43.368C202.378 45.96 203.098 48.904 203.098 52.2C203.098 55.496 202.378 58.456 200.938 61.08C199.498 63.672 197.514 65.704 194.986 67.176C192.458 68.616 189.626 69.336 186.49 69.336ZM186.49 66.408C188.986 66.408 191.226 65.832 193.21 64.68C195.194 63.528 196.762 61.88 197.914 59.736C199.066 57.56 199.642 55.048 199.642 52.2C199.642 49.352 199.066 46.856 197.914 44.712C196.762 42.568 195.194 40.92 193.21 39.768C191.226 38.616 188.986 38.04 186.49 38.04C183.994 38.04 181.754 38.616 179.77 39.768C177.786 40.92 176.218 42.568 175.066 44.712C173.914 46.856 173.338 49.352 173.338 52.2C173.338 55.048 173.914 57.56 175.066 59.736C176.218 61.88 177.786 63.528 179.77 64.68C181.754 65.832 183.994 66.408 186.49 66.408ZM228.878 35.448V38.232H219.566V69H216.206V38.232H206.846V35.448H228.878ZM237.544 38.184V50.712H250.264V53.496H237.544V66.216H251.704V69H234.184V35.4H251.704V38.184H237.544ZM261.684 66.264H273.732V69H258.324V35.448H261.684V66.264ZM288.704 69.336C286.496 69.336 284.544 68.952 282.848 68.184C281.184 67.416 279.872 66.344 278.912 64.968C277.952 63.592 277.44 62.056 277.376 60.36H280.928C281.088 61.992 281.808 63.432 283.088 64.68C284.368 65.896 286.24 66.504 288.704 66.504C290.976 66.504 292.768 65.928 294.08 64.776C295.424 63.592 296.096 62.104 296.096 60.312C296.096 58.872 295.728 57.72 294.992 56.856C294.256 55.96 293.344 55.304 292.256 54.888C291.168 54.44 289.664 53.96 287.744 53.448C285.504 52.84 283.728 52.248 282.416 51.672C281.104 51.096 279.984 50.2 279.056 48.984C278.128 47.768 277.664 46.12 277.664 44.04C277.664 42.312 278.112 40.776 279.008 39.432C279.904 38.056 281.168 36.984 282.8 36.216C284.432 35.448 286.304 35.064 288.416 35.064C291.52 35.064 294.016 35.832 295.904 37.368C297.824 38.872 298.928 40.824 299.216 43.224H295.568C295.344 41.848 294.592 40.632 293.312 39.576C292.032 38.488 290.304 37.944 288.128 37.944C286.112 37.944 284.432 38.488 283.088 39.576C281.744 40.632 281.072 42.088 281.072 43.944C281.072 45.352 281.44 46.488 282.176 47.352C282.912 48.216 283.824 48.872 284.912 49.32C286.032 49.768 287.536 50.248 289.424 50.76C291.6 51.368 293.36 51.976 294.704 52.584C296.048 53.16 297.184 54.056 298.112 55.272C299.04 56.488 299.504 58.12 299.504 60.168C299.504 61.736 299.088 63.224 298.256 64.632C297.424 66.04 296.192 67.176 294.56 68.04C292.928 68.904 290.976 69.336 288.704 69.336Z" fill="white"/>
</svg>
