<svg class="trainedStaffPrime_svg__svg" viewBox="0 0 66 66"><defs><style>.trainedStaffPrime_svg__cls-2{fill:#31649b}.trainedStaffPrime_svg__cls-3{fill:#538bd8}</style></defs><path fill="none" d="M0 0h66v66H0z"></path><path class="trainedStaffPrime_svg__cls-2" d="M24.7 12.7l-.6-.3-.2-.4.2-5.9a1 1 0 01.9-.9h17.2V12a.4.4 0 01-.2.4l-.4.2z"></path><path class="trainedStaffPrime_svg__cls-3" d="M26.9 12.7l.2-3.5a.9.9 0 01.9-.9h14.3V12l-.2.4-.3.2z"></path><path class="trainedStaffPrime_svg__cls-2" d="M12.1 60.7a2 2 0 01-2-1.9v-7.6c-.1-7.1 7.7-9.5 8-9.6a27.4 27.4 0 016-.9 1 1 0 001-.8v-1.4l1 1a8.9 8.9 0 002.9 2.1l.3.2v2.3a1 1 0 001 .9l2.7 2.3 2.6-2.3a.9.9 0 001-.9v-2.3h.3a9.7 9.7 0 002.8-2.2l1-1V40a1 1 0 001 .8 27.4 27.4 0 016 .9c.3.1 8.2 2.4 8 9.6V59a1.9 1.9 0 01-1.9 1.9z"></path><path class="trainedStaffPrime_svg__cls-3" d="M55.8 51.2v7.7a1.9 1.9 0 01-1.9 1.9H15.1v-5.6c-.1-7 7.2-9.4 8-9.6l2.1-.6a21.6 21.6 0 012.9-.3l.7-.2.4-.4.3.5.3.3h.5l2.8 2.3 2.5-2.2h1.3a3.9 3.9 0 004-4.4v-.5a1 1 0 00.9.6 24.8 24.8 0 016 .9 13 13 0 015.7 3.5 10.1 10.1 0 011.4 2 9.1 9.1 0 01.9 4.1z"></path><path d="M8.2 62.7V51.2c-.2-6.9 6.1-10.5 9.4-11.5a25 25 0 015-.8h.6v-4.3a1 1 0 01.7-.9h.6l.5.6c.3.6 2.4 4.9 5.5 5.8a1.3 1.3 0 01.8 1v3a1 1 0 01-2 0v-2.3H29a11.3 11.3 0 01-2.8-2.2l-1-1-.2 2.1a29.9 29.9 0 00-6.9.9c-.3.1-8.1 2.5-8 9.6v7.6a2 2 0 001.9 1.9h41.9a2.1 2.1 0 001.9-1.9v-7.6c.2-7.2-7.7-9.5-8-9.6a28.9 28.9 0 00-6.9-.9l-.2-2.2-1 1a9.9 9.9 0 01-2.7 2.1l-.3.2v2.3a.9.9 0 01-1 .9.9.9 0 01-.9-.9v-3a1.2 1.2 0 01.7-1c3.2-.9 5.3-5.3 5.5-5.8l.6-.6h.4a.9.9 0 01.8.9v4.2h.6a24.9 24.9 0 014.9.8c3.4 1 9.6 4.6 9.5 11.5v11.6zM33 36.4a10.4 10.4 0 01-7.2-2.8 1.6 1.6 0 00-.7-.7 18.2 18.2 0 01-4.3-8.7v-.5c-.3-2.2-.6-5.1-.2-6.4a9.8 9.8 0 011.2-2.7v-2.9l.3-7.9a.5.5 0 01.5-.5h20.9a.6.6 0 01.6.5l.2 8V15h.1a11.9 11.9 0 01.8 2.2c.4 1.3.2 4.2-.1 6.5v.4a17.9 17.9 0 01-4.2 8.7 1.6 1.6 0 00-.8.8 10.3 10.3 0 01-7.1 2.8zm4.3-21.3c-.2.2-4.3 5.5-14.2 6.6h-.6v.6c0 .4.1.7.1 1.1s0 .2.1.2 1.9 10.7 10.1 10.7S43.2 24 43.2 23.9v-.2l.2-1.2-.5-.2a25.9 25.9 0 01-5-2.1 9.1 9.1 0 001.3-1 16 16 0 003.5 1.5l.8.3v-1a11.6 11.6 0 00-.1-2.2 7 7 0 00-1.3-2.6v-.5h-4.6zM23.8 15v.2a10.5 10.5 0 00-1.2 2.6 5.2 5.2 0 00-.1 1.9v.7h.7a20.9 20.9 0 0011.5-4.6l1.3-1.2H24zM25 5.2a1 1 0 00-.9.9l-.2 5.9.2.4.6.3h17l.4-.2a.4.4 0 00.2-.4V5.2z" fill="#202c61"></path></svg>