<svg class="lowestPrice_svg__svg" viewBox="0 0 29 25"><g fill="none"><path fill="#333" d="M25.994 24.279h-5.171a.456.456 0 01-.403-.201l-7.59-8.839a.425.425 0 01-.1-.351v-2.812a.456.456 0 01.159-.352.542.542 0 01.351-.158h3.708a3.01 3.01 0 002.863-1.305H12.83a.456.456 0 01-.402-.201.475.475 0 01-.1-.452l.803-3.114a.49.49 0 01.502-.402h5.877a3.179 3.179 0 00-2.462-.905H12.83a.456.456 0 01-.402-.2c-.1 0-.159-.16-.1-.302l.904-3.817a.49.49 0 01.502-.402H28.45a.456.456 0 01.403.2.478.478 0 01.1.452l-.804 3.114a.49.49 0 01-.502.403h-2.404c.22.5.388 1.022.502 1.557h2.712a.456.456 0 01.402.2c.103.127.14.294.1.452l-.854 3.114a.54.54 0 01-.502.403h-1.9a6.415 6.415 0 01-1.968 3.578 8.636 8.636 0 01-3.716 1.858l6.276 7.478a.424.424 0 01.1.351v.201c.102.25-.148.452-.4.452zm-4.972-1.004h4.017l-6.326-7.483a.618.618 0 01-.1-.502.573.573 0 01.394-.352 8.275 8.275 0 004.068-1.807 5.994 5.994 0 001.708-3.415.534.534 0 01.502-.451h1.959l.553-2.06h-2.454a.534.534 0 01-.502-.451 6.27 6.27 0 00-.854-2.41.456.456 0 010-.503.527.527 0 01.452-.252H27.3l.553-2.11h-13.71l-.653 2.763h3.616c1.621-.18 3.17.72 3.817 2.217a.594.594 0 01-.05.502.456.456 0 01-.403.202h-6.43l-.552 2.059h7.031a.62.62 0 01.402.2c.08.137.116.295.1.452a3.813 3.813 0 01-4.118 2.661H13.69v2.06l7.332 8.68zm-15.97-4.62a.383.383 0 01-.251-.1l-4.267-4.27a.391.391 0 01-.1-.402.377.377 0 01.352-.251h1.907V6.494a.396.396 0 01.402-.402h4.118a.396.396 0 01.403.402v7.128h1.758a.377.377 0 01.351.252.317.317 0 01-.1.402l-4.32 4.278a.383.383 0 01-.252.1zm-3.414-4.27l3.364 3.365 3.364-3.365H7.163a.396.396 0 01-.403-.402V6.855H3.396v7.128a.396.396 0 01-.402.402H1.638z"></path><path fill="#FF4B00" d="M27.802 7.205L27.55 8.21l-.301 1.055H25.29a.534.534 0 00-.502.451 5.702 5.702 0 01-1.708 3.415 8.275 8.275 0 01-4.067 1.807.486.486 0 00-.403.352.584.584 0 00.1.502l6.328 7.483h-4.017l-6.277-7.333v-2.309h3.214a3.855 3.855 0 004.118-2.661c.502-1.657-1.356-1.657-1.506-1.657h-5.826l.301-1.055h6.379a.447.447 0 00.402-.252.827.827 0 00.05-.502A3.168 3.168 0 0020.573 5.9a3.988 3.988 0 00-3.514-1.657h-2.364l.403-1.807H27.5l-.3 1.107h-2.813a.527.527 0 00-.452.252c-.1.152-.1.35 0 .502.463.73.755 1.553.854 2.411.039.25.249.44.502.451l2.51.051v-.005z" opacity="0.7"></path></g></svg>