<svg class="interprevArrowiorPrime_svg__svg" data-name="Layer 1" viewBox="0 0 66 66"><defs><style>.interprevArrowiorPrime_svg__cls-2{fill:#202c61}.interprevArrowiorPrime_svg__cls-3{fill:#31649b}.interprevArrowiorPrime_svg__cls-4{fill:#538bd8}</style></defs><path fill="none" d="M-.1 0h66v66h-66z"></path><path class="interprevArrowiorPrime_svg__cls-2" d="M9.2 61.2a.9.9 0 01-.8-.8.8.8 0 01.8-.7h2.1v-39H3.8a.9.9 0 01-.6-.3c-.1-.1-.1-.4-.1-.6L8.4 4.5a.8.8 0 01.7-.4h6.1a.8.8 0 01.7.4l4.8 15.3c0 .2 0 .5-.1.6a.9.9 0 01-.6.3h-7.3v38.9h2.4a.8.8 0 110 1.6zm2.8-42h7L14.7 5.5H9.6L4.8 19.3H12zM55.1 61.6a.8.8 0 01-.7-.8v-1.9H31v1.9a.8.8 0 01-.7.8H28a.8.8 0 01-.7-.8v-1l-4.2-22.4s-.7-4.7 1.4-7.1a3.3 3.3 0 011.7-1.2l.8-.3-.2-.8c-.6-2.5-.9-6.1 1.2-9.2s7.3-5.5 14.5-5.5h.2c7.2.1 12.1 1.9 14.5 5.5s1.8 6.7 1.2 9.1l-.2.9.8.2a5 5 0 011.9 1.3c2 2.4 1.4 6.9 1.3 7.1l-4.1 22.2v1.2a.9.9 0 01-.8.8zm-25.9-4.2h27l-2.1-11.1H31.2zm28.1-27.1a2.9 2.9 0 00-2.3.9c-1.4 1.6-1.2 4.8-1.1 5.9l2.6 13.7h1.7l2.6-13.7c.1-1.1.3-4.3-1.1-5.9a2.9 2.9 0 00-2.3-.9zm-29.3 0a2.9 2.9 0 00-2.3.9c-1.4 1.6-1.2 4.8-1.1 5.9l2.6 13.7h1.7l2.5-13.7c.2-1.1.3-4.3-1-5.9a3.2 3.2 0 00-2.4-.9zm14.5 10.4a15.3 15.3 0 00-8 2.4l-2.7 1.7h21.4l-2.7-1.7a14.8 14.8 0 00-8-2.4zm0-1.4a15.8 15.8 0 019.2 2.8l1.9 1.3-1.1-6c-.1-.5-.7-4.8 1.4-7.1a3.7 3.7 0 012.2-1.4h.5l.2-.6c.4-1.5 1.2-5.5-.9-8.6s-6.5-4.8-13.3-4.8-11.2 1.6-13.4 4.8-1.3 7-.8 8.6v.6h.6a3.7 3.7 0 012.4 1.4c2 2.3 1.5 6.6 1.4 7.1l-1.1 5.7 1.9-1.2a16.2 16.2 0 018.9-2.6z"></path><path class="interprevArrowiorPrime_svg__cls-3" d="M42.5 39.3a15.8 15.8 0 019.2 2.8l1.9 1.3-1.1-6c-.1-.5-.7-4.8 1.4-7.1a3.7 3.7 0 012.2-1.4h.5l.2-.6c.4-1.5 1.2-5.5-.9-8.6s-6.5-4.8-13.3-4.8-11.2 1.6-13.4 4.8-1.3 7-.8 8.6v.6h.6a3.7 3.7 0 012.4 1.4c2 2.3 1.5 6.6 1.4 7.1l-1.1 5.7 1.9-1.2a16.2 16.2 0 018.9-2.6z"></path><path class="interprevArrowiorPrime_svg__cls-4" d="M56.8 28.2v.6h-.6a3.7 3.7 0 00-2.2 1.4c-2.1 2.3-1.5 6.6-1.4 7.1l1.1 6-1.9-1.3a15.8 15.8 0 00-9.2-2.8 17.6 17.6 0 00-5.5.9 14.8 14.8 0 00-3.3 1.7L31.9 43l1.1-5.7a13.2 13.2 0 000-3.6 6.7 6.7 0 00-1-3 9.6 9.6 0 011.3-6.2c2.2-3.2 6.7-4.8 13.4-4.8 4.5 0 7.9.7 10.4 2.1a12.5 12.5 0 01-.3 6.4z"></path><path class="interprevArrowiorPrime_svg__cls-3" d="M29.2 57.4h27l-2.1-11.1H31.2l-2 11.1z"></path><path class="interprevArrowiorPrime_svg__cls-4" d="M56.2 57.4H33.9l1.3-7.1h19.7l1.3 7.1zM12 19.2h7L14.7 5.5H9.6L4.8 19.3H12z"></path><path class="interprevArrowiorPrime_svg__cls-4" d="M19 19.3H8.2l3.4-9.8h4.3z"></path></svg>