<svg class="equippedPrime_svg__svg" data-name="Layer 1" viewBox="0 0 66 66"><path fill="none" d="M-.2 0h66v66h-66z"></path><path d="M15 61.3h-.5a1 1 0 01-.3-1l6.6-20.4L3.5 27.3a.9.9 0 01-.4-.7.6.6 0 01.3-.6.6.6 0 01.6-.3h21.4L32 5.4a1 1 0 01.5-.6h.3a.8.8 0 01.8.6l6.6 20.3h21.4a.7.7 0 01.7.4.8.8 0 01-.2 1.2L44.8 39.8l6.6 20.4c.2.3 0 .7-.3 1h-1L32.8 48.6 15.5 61.2zm17.8-14.6h.5l11.9 8.6.7.6 3.1 2.3-1.2-3.6-.2-.8-4.6-14a.9.9 0 01.3-1l11.9-8.7.7-.4 3.1-2.3H39.6a.8.8 0 01-.8-.6l-4.6-14.1-.2-.7-1.2-3.6-1.2 3.6-.2.8-4.6 14a.8.8 0 01-.8.6H6.6l3.1 2.3 12.6 9.1a.8.8 0 01.3.9l-4.5 14-.3.8-1.2 3.7 3.2-2.3.6-.5 11.9-8.6z" fill="#202c61"></path><path d="M32.8 46.7h.5l11.9 8.6.7.6 3.1 2.3-1.2-3.6-.2-.8-4.6-14a.9.9 0 01.3-1l11.9-8.7.7-.4 3.1-2.3H39.6a.8.8 0 01-.8-.6l-4.6-14.1-.2-.7-1.2-3.6-1.2 3.6-.2.8-4.6 14a.8.8 0 01-.8.6H6.6l3.1 2.3 12.6 9.1a.8.8 0 01.3.9l-4.5 14-.3.8-1.2 3.7 3.2-2.3.6-.5 11.9-8.6z" fill="#31649b"></path><path d="M59 27.4l-3.1 2.3-.7.4-3.1 2.3-8.8 6.4a.9.9 0 00-.3 1l4.6 14 .2.8 1.2 3.7-3.1-2.3-.7-.6-11.9-8.6h-1L26.6 51l2-6.3a.8.8 0 00-.3-.9l-5.7-4.1a.8.8 0 00-.3-.9l-8.7-6.4H32a.8.8 0 00.8-.6l3.8-11.6 2.2 6.6a.8.8 0 00.8.6z" fill="#538bd8"></path></svg>