<svg class="freeWifiRed_svg__svg" viewBox="0 0 25 25"><g fill="none" fill-rule="evenodd"><path d="M-.58-1h26.886a.42.42 0 01.42.42v26.886a.42.42 0 01-.42.42H-.58a.42.42 0 01-.42-.42V-.58A.42.42 0 01-.58-1z"></path><path fill="#FF4B00" fill-rule="nonzero" d="M4.447 18.194h19.351a.42.42 0 01.42.42v5.209a.42.42 0 01-.42.42H4.448a.42.42 0 01-.42-.42v-5.21a.42.42 0 01.42-.419z" opacity="0.7"></path><path fill="#000" fill-rule="nonzero" d="M24.553 24.997H1.173a.42.42 0 01-.42-.42v-8.399a.42.42 0 01.42-.42h10.893a.42.42 0 00.415-.425v-4.564a.375.375 0 01.75 0v4.564c0 .232.188.42.42.42h10.897a.42.42 0 01.42.42v8.399a.421.421 0 01-.415.425zm-.755-8.483H1.928a.42.42 0 00-.419.42v6.887c0 .232.188.42.42.42h21.87a.42.42 0 00.419-.42v-6.888a.42.42 0 00-.42-.418v-.001zM12.14 20.75a.375.375 0 010-.75h1.443a.375.375 0 010 .75H12.14zM9.93 9.115a.39.39 0 01-.228-.709 5.486 5.486 0 016.25-.052.391.391 0 11-.44.646 4.777 4.777 0 00-5.358.044.389.389 0 01-.224.071zm-1.965-2.8a.39.39 0 01-.39-.39.404.404 0 010-.068.387.387 0 01.153-.252 8.9 8.9 0 0110.179-.045.391.391 0 11-.446.643 8.12 8.12 0 00-9.284.04.378.378 0 01-.212.072zM5.99 3.511a.39.39 0 01-.226-.71 12.325 12.325 0 0114.133-.051.391.391 0 11-.441.646 11.542 11.542 0 00-13.235.046.381.381 0 01-.23.069z"></path></g></svg>