<svg class="freeWifiYellow_svg__svg" viewBox="0 0 26 26"><g fill="none" fill-rule="evenodd"><path d="M-1-1h27.809v27.809H-1z"></path><path fill="#E0BB1E" fill-rule="nonzero" d="M2.773 16.568h20.261c.695 0 1.259.563 1.259 1.258v5.234c0 .695-.564 1.258-1.259 1.258H2.774a1.258 1.258 0 01-1.259-1.258v-5.234c0-.695.563-1.258 1.258-1.258z"></path><path fill="#FDDC0D" fill-rule="nonzero" d="M4.042 24.32v-4.81c0-.695.564-1.258 1.26-1.26h18.99v4.809a1.26 1.26 0 01-1.259 1.26H4.042z"></path><path fill="#202D61" fill-rule="nonzero" d="M2.775 25.076A2.02 2.02 0 01.759 23.06v-5.236a2.02 2.02 0 012.016-2.016h9.751v-5.004a.377.377 0 01.752 0v5.004h9.752a2.028 2.028 0 012.022 2.02v5.232a2.018 2.018 0 01-2.016 2.016H2.775zm0-8.508a1.26 1.26 0 00-1.259 1.258v5.234a1.26 1.26 0 001.259 1.258h20.26a1.26 1.26 0 001.26-1.258v-5.236a1.26 1.26 0 00-1.26-1.258l-20.26.002zm9.404 4.25a.377.377 0 110-.753h1.446a.377.377 0 110 .752H12.18zM9.962 9.144a.392.392 0 01-.228-.712 5.51 5.51 0 016.27-.052.393.393 0 11-.447.646 4.79 4.79 0 00-5.373.045.39.39 0 01-.222.073zm-1.97-2.807a.392.392 0 01-.225-.712 8.934 8.934 0 0110.21-.044.392.392 0 11-.448.644 8.144 8.144 0 00-9.312.04.386.386 0 01-.225.072zm-1.98-2.814a.392.392 0 01-.228-.715 12.359 12.359 0 0114.176-.05.392.392 0 11-.447.643 11.577 11.577 0 00-13.275.046.386.386 0 01-.226.076z"></path></g></svg>